<mxfile host="drawio-plugin" modified="2023-05-11T08:19:17.207Z" agent="5.0 (Windows NT 6.2; Win64; x64) AppleWebKit/537.36 (KHTML, like Gecko) Chrome/98.0.4758.102 Safari/537.36" etag="joMJSaEJFgtjvRd44uEi" version="20.5.3" type="embed"><diagram name="Sida-1" id="FB_1U56iECh01ngSATk1"><mxGraphModel dx="1581" dy="536" grid="1" gridSize="10" guides="1" tooltips="1" connect="1" arrows="1" fold="1" page="1" pageScale="1" pageWidth="827" pageHeight="1169" math="0" shadow="0"><root><mxCell id="0"/><mxCell id="1" parent="0"/><mxCell id="bxKrC__YjrzZiJdVOf2z-17" value="&lt;p style=&quot;margin:0px;margin-top:4px;text-align:center;&quot;&gt;&lt;b style=&quot;&quot;&gt;User&lt;/b&gt;&lt;/p&gt;&lt;hr size=&quot;1&quot;&gt;&lt;p style=&quot;margin:0px;margin-left:4px;&quot;&gt;userId&lt;/p&gt;&lt;p style=&quot;margin:0px;margin-left:4px;&quot;&gt;username&amp;nbsp;&lt;/p&gt;&lt;p style=&quot;margin:0px;margin-left:4px;&quot;&gt;password&lt;/p&gt;&lt;p style=&quot;margin:0px;margin-left:4px;&quot;&gt;firstname&lt;span style=&quot;white-space: pre;&quot;&gt; &lt;/span&gt;&lt;/p&gt;&lt;p style=&quot;margin:0px;margin-left:4px;&quot;&gt;lastname&lt;/p&gt;&lt;p style=&quot;margin:0px;margin-left:4px;&quot;&gt;role&lt;/p&gt;&lt;p style=&quot;margin:0px;margin-left:4px;&quot;&gt;&lt;/p&gt;&lt;p style=&quot;margin:0px;margin-left:4px;&quot;&gt;&lt;br&gt;&lt;/p&gt;" style="verticalAlign=top;align=left;overflow=fill;fontSize=12;fontFamily=Helvetica;html=1;whiteSpace=wrap;" parent="1" vertex="1"><mxGeometry x="-370" y="80" width="190" height="140" as="geometry"/></mxCell><mxCell id="bxKrC__YjrzZiJdVOf2z-19" value="&lt;p style=&quot;margin:0px;margin-top:4px;text-align:center;&quot;&gt;&lt;b&gt;Article&lt;/b&gt;&lt;/p&gt;&lt;hr size=&quot;1&quot;&gt;&lt;p style=&quot;margin:0px;margin-left:4px;&quot;&gt;articleId&lt;br&gt;sectionId&lt;/p&gt;&lt;p style=&quot;margin:0px;margin-left:4px;&quot;&gt;articleName&lt;/p&gt;&lt;p style=&quot;margin:0px;margin-left:4px;&quot;&gt;articleAmount&lt;/p&gt;&lt;p style=&quot;margin:0px;margin-left:4px;&quot;&gt;typeOfAmount&lt;/p&gt;&lt;p style=&quot;margin:0px;margin-left:4px;&quot;&gt;bestBefore&lt;/p&gt;" style="verticalAlign=top;align=left;overflow=fill;fontSize=12;fontFamily=Helvetica;html=1;whiteSpace=wrap;" parent="1" vertex="1"><mxGeometry x="-100" y="290" width="190" height="140" as="geometry"/></mxCell><mxCell id="bxKrC__YjrzZiJdVOf2z-20" value="&lt;p style=&quot;margin:0px;margin-top:4px;text-align:center;&quot;&gt;&lt;b&gt;Place&lt;/b&gt;&lt;/p&gt;&lt;hr size=&quot;1&quot;&gt;&lt;p style=&quot;margin:0px;margin-left:4px;&quot;&gt;placeId&lt;/p&gt;&lt;p style=&quot;margin:0px;margin-left:4px;&quot;&gt;placeName&lt;/p&gt;&lt;p style=&quot;margin:0px;margin-left:4px;&quot;&gt;userId&lt;/p&gt;&lt;p style=&quot;margin:0px;margin-left:4px;&quot;&gt;&lt;br&gt;&lt;/p&gt;" style="verticalAlign=top;align=left;overflow=fill;fontSize=12;fontFamily=Helvetica;html=1;whiteSpace=wrap;" parent="1" vertex="1"><mxGeometry x="-700" y="300" width="190" height="140" as="geometry"/></mxCell><mxCell id="bxKrC__YjrzZiJdVOf2z-21" value="&lt;p style=&quot;margin:0px;margin-top:4px;text-align:center;&quot;&gt;&lt;b&gt;Section&lt;/b&gt;&lt;/p&gt;&lt;hr size=&quot;1&quot;&gt;&lt;p style=&quot;margin:0px;margin-left:4px;&quot;&gt;sectionId&lt;/p&gt;&lt;p style=&quot;margin:0px;margin-left:4px;&quot;&gt;sectionName&lt;/p&gt;&lt;p style=&quot;margin:0px;margin-left:4px;&quot;&gt;placeId&lt;/p&gt;&lt;p style=&quot;margin:0px;margin-left:4px;&quot;&gt;&lt;br&gt;&lt;/p&gt;" style="verticalAlign=top;align=left;overflow=fill;fontSize=12;fontFamily=Helvetica;html=1;whiteSpace=wrap;" parent="1" vertex="1"><mxGeometry x="-420" y="310" width="190" height="140" as="geometry"/></mxCell><mxCell id="bxKrC__YjrzZiJdVOf2z-24" value="" style="edgeStyle=entityRelationEdgeStyle;fontSize=12;html=1;endArrow=ERzeroToMany;startArrow=ERmandOne;rounded=0;" parent="1" source="bxKrC__YjrzZiJdVOf2z-17" target="bxKrC__YjrzZiJdVOf2z-20" edge="1"><mxGeometry width="100" height="100" relative="1" as="geometry"><mxPoint x="50" y="130" as="sourcePoint"/><mxPoint x="-50" y="250" as="targetPoint"/></mxGeometry></mxCell><mxCell id="bxKrC__YjrzZiJdVOf2z-26" value="" style="edgeStyle=entityRelationEdgeStyle;fontSize=12;html=1;endArrow=ERoneToMany;startArrow=ERmandOne;rounded=0;" parent="1" edge="1"><mxGeometry width="100" height="100" relative="1" as="geometry"><mxPoint x="-510" y="400" as="sourcePoint"/><mxPoint x="-420" y="400" as="targetPoint"/></mxGeometry></mxCell><mxCell id="bxKrC__YjrzZiJdVOf2z-27" value="" style="edgeStyle=entityRelationEdgeStyle;fontSize=12;html=1;endArrow=ERzeroToMany;startArrow=ERmandOne;rounded=0;exitX=1;exitY=0.429;exitDx=0;exitDy=0;exitPerimeter=0;entryX=0;entryY=0.5;entryDx=0;entryDy=0;" parent="1" source="bxKrC__YjrzZiJdVOf2z-21" target="bxKrC__YjrzZiJdVOf2z-19" edge="1"><mxGeometry width="100" height="100" relative="1" as="geometry"><mxPoint x="324" y="349.87" as="sourcePoint"/><mxPoint x="414" y="349.87" as="targetPoint"/></mxGeometry></mxCell></root></mxGraphModel></diagram></mxfile>